# xmcd
#
# Track frame offsets: 
#        150
#        17156
#        30953
#        51783
#        66685
#        87333
#        104001
#        119636
#        138175
#        153092
#        170076
#        188361
#
# Disc length: 2708 seconds
#
# Revision: 0
# Processed by: cddbd v1.5.2PL0 Copyright (c) Steve Scherf et al.
# Submitted via: ExactAudioCopy v0.95a4
#
DISCID=9f0a920c
DTITLE=Janiva Magness - Love Is An Army
DYEAR=2018
DGENRE=Blues
TTITLE0=Back To Blue
TTITLE1=Hammer
TTITLE2=On And On
TTITLE3=Tell Me
TTITLE4=Love Is An Army
TTITLE5=Down Below
TTITLE6=What's That Say About You
TTITLE7=What I Could Do
TTITLE8=Home
TTITLE9=Love To A Gunfight
TTITLE10=When It Rains
TTITLE11=Some Kind Of Love
EXTD=
EXTT0=
EXTT1=
EXTT2=
EXTT3=
EXTT4=
EXTT5=
EXTT6=
EXTT7=
EXTT8=
EXTT9=
EXTT10=
EXTT11=
PLAYORDER=
